<svg xmlns="http://www.w3.org/2000/svg" width="96" height="96" viewBox="0 0 96 96" role="img" aria-label="Лимпекс">
  <defs><linearGradient id="g" x1="0" y1="0" x2="1" y2="1"><stop offset="0" stop-color="#75b843"/><stop offset="1" stop-color="#4f8f2f"/></linearGradient></defs>
  <rect x="4" y="4" width="88" height="88" rx="22" fill="url(#g)"/>
  <path d="M50 20c-16 0-28.5 12.5-28.5 28S34 76 50 76c9.2 0 17.4-4 22.6-10.5l-11.1-7.4C58.8 61.4 54.8 63 50 63c-7.5 0-13.4-4.5-15.1-11.1h44.2c.3-1.7.5-3.3.5-5C79.5 31.3 67 20 50 20ZM35.4 42.3c2.1-6.1 7.5-9.9 14.2-9.9 7.1 0 12.4 3.7 14.8 9.9h-29Z" fill="#fff"/>
</svg>
