<svg xmlns="http://www.w3.org/2000/svg" width="210" height="54" viewBox="0 0 210 54" role="img" aria-label="Лимпекс">
  <defs>
    <linearGradient id="g" x1="0" y1="0" x2="1" y2="1">
      <stop offset="0" stop-color="#75b843"/>
      <stop offset="1" stop-color="#4f8f2f"/>
    </linearGradient>
  </defs>
  <rect x="1" y="1" width="52" height="52" rx="13" fill="url(#g)"/>
  <path d="M28 11c-9.2 0-16.4 7.2-16.4 16S18.8 43 28 43c5.3 0 10-2.3 13-6l-6.4-4.3c-1.6 1.9-3.8 3-6.6 3-4.3 0-7.7-2.6-8.7-6.4h25.4c.2-1 .3-1.9.3-2.9C45 17.5 37.8 11 28 11Zm-8.4 12.8c1.2-3.5 4.3-5.7 8.2-5.7 4.1 0 7.1 2.1 8.5 5.7H19.6Z" fill="#fff"/>
  <text x="66" y="31" font-family="Inter, Arial, sans-serif" font-size="25" font-weight="800" letter-spacing=".5" fill="#17212d">ЛИМПЕКС</text>
  <text x="68" y="45" font-family="Inter, Arial, sans-serif" font-size="9" font-weight="700" letter-spacing="2.4" fill="#6b747c">КОМПЛЕКТУЮЩИЕ</text>
</svg>
